HIERARCHY
ROOT Hips
{
	OFFSET 0.00000 0.00000 0.00000
	CHANNELS 6 Xposition Yposition Zposition Zrotation Yrotation Xrotation 
	JOINT LHipJoint
	{
		OFFSET 0 0 0
		CHANNELS 3 Zrotation Yrotation Xrotation
		JOINT LeftHip
		{
			OFFSET 1.37959 -1.78713 0.86582
			CHANNELS 3 Zrotation Yrotation Xrotation
			JOINT LeftKnee
			{
				OFFSET 2.54611 -6.99539 0.00000
				CHANNELS 3 Zrotation Yrotation Xrotation
				JOINT LeftAnkle
				{
					OFFSET 2.59951 -7.14211 0.00000
					CHANNELS 3 Zrotation Yrotation Xrotation
					JOINT LeftToe
					{
						OFFSET 0.18493 -0.50810 1.96120
						CHANNELS 3 Zrotation Yrotation Xrotation
						End Site
						{
							OFFSET 0.00000 -0.00000 1.02054
						}
					}
				}
			}
		}
	}
	JOINT RHipJoint
	{
		OFFSET 0 0 0
		CHANNELS 3 Zrotation Yrotation Xrotation
		JOINT RightHip
		{
			OFFSET -1.33564 -1.78713 0.86582
			CHANNELS 3 Zrotation Yrotation Xrotation
			JOINT RightKnee
			{
				OFFSET -2.52705 -6.94302 0.00000
				CHANNELS 3 Zrotation Yrotation Xrotation
				JOINT RightAnkle
				{
					OFFSET -2.55964 -7.03257 0.00000
					CHANNELS 3 Zrotation Yrotation Xrotation
					JOINT RightToe
					{
						OFFSET -0.25804 -0.70896 2.12109
						CHANNELS 3 Zrotation Yrotation Xrotation
						End Site
						{
							OFFSET -0.00000 -0.00000 1.11821
						}
					}
				}
			}
		}
	}
	JOINT lowerback
	{
		OFFSET 0 0 0
		CHANNELS 3 Zrotation Yrotation Xrotation
		JOINT Chest
		{
			OFFSET -0.02031 2.24248 -0.18900
			CHANNELS 3 Zrotation Yrotation Xrotation
			JOINT Chest2
			{
				OFFSET 0.08342 2.24689 -0.03799
				CHANNELS 3 Zrotation Yrotation Xrotation
				JOINT lowerneck
				{
					OFFSET 0 0 0
					CHANNELS 3 Zrotation Yrotation Xrotation
					JOINT Neck
					{
						OFFSET -0.11607 1.55844 0.24628
						CHANNELS 3 Zrotation Yrotation Xrotation
						JOINT Head
						{
							OFFSET 0.06877 1.60174 -0.17013
							CHANNELS 3 Zrotation Yrotation Xrotation
							End Site
							{
								OFFSET 0.03358 1.61266 -0.08543
							}
						}
					}
				}
				JOINT LeftCollar
				{
					OFFSET 0 0 0
					CHANNELS 3 Zrotation Yrotation Xrotation
					JOINT LeftShoulder
					{
						OFFSET 3.47537 0.55866 -0.72348
CHANNELS 3 Zrotation Xrotation Yrotation
						JOINT LeftElbow
						{
OFFSET 0 -5.381540 0.000000
CHANNELS 3 Zrotation Xrotation Yrotation
							JOINT LeftWrist
							{
OFFSET 0 -3.333120 0.000000
CHANNELS 3 Zrotation Xrotation Yrotation
								JOINT lhand
								{
									OFFSET 0 0 0
CHANNELS 3 Zrotation Xrotation Yrotation
									JOINT LFingers
									{
OFFSET 0 -0.710790 0.000000
CHANNELS 3 Zrotation Xrotation Yrotation
										End Site
										{
OFFSET 0 -0.573060 0.000000
										}
									}
								}
								JOINT LThumb
								{
OFFSET 0 0.000000 0.000000
CHANNELS 3 Zrotation Xrotation Yrotation
									End Site
									{
OFFSET 0 -0.581810 0.581810
									}
								}
							}
						}
					}
				}
				JOINT RightCollar
				{
					OFFSET 0 0 0
					CHANNELS 3 Zrotation Yrotation Xrotation
					JOINT RightShoulder
					{
						OFFSET -3.27844 0.90739 -0.35708
CHANNELS 3 Zrotation Xrotation Yrotation
						JOINT RightElbow
						{
OFFSET 0 -5.169540 0.000000
CHANNELS 3 Zrotation Xrotation Yrotation
							JOINT RightWrist
							{
OFFSET 0 -3.382870 0.000000
CHANNELS 3 Zrotation Xrotation Yrotation
								JOINT rhand
								{
									OFFSET 0 0 0
CHANNELS 3 Zrotation Xrotation Yrotation
									JOINT RFingers
									{
OFFSET 0 -0.817970 0.000000
CHANNELS 3 Zrotation Xrotation Yrotation
										End Site
										{
OFFSET 0 -0.659470 0.000000
										}
									}
								}
								JOINT RThumb
								{
OFFSET 0 0.000000 0.000000
CHANNELS 3 Zrotation Xrotation Yrotation
									End Site
									{
OFFSET 0 -0.669530 0.669530
									}
								}
							}
						}
					}
				}
			}
		}
	}
}
MOTION
Frames: 8
Frame Time: 0.008333333333333333
13.606300 17.422100 -16.718200 -2.059600 -5.680900 1.131400 0.000000 0.000000 0.000000 -17.360900 -3.986700 -24.621600 2.727100 10.239500 29.756000 0.081300 -4.791100 -5.673900 0.014900 -0.788000 -2.165500 0.000000 0.000000 0.000000 22.048800 4.173800 2.138100 -6.647600 -15.027800 47.528600 -1.216100 -10.237800 19.919400 -0.651700 -5.163900 14.376700 0.805400 2.802700 3.076600 0.113400 3.747500 2.749300 -0.407800 1.884900 1.141600 -11.240300 -3.531500 -15.309000 7.264100 -3.739300 20.448500 3.919000 -1.840200 9.318500 0.000000 0.000000 0.000000 6.742400 5.936700 -13.710700 18.042200 -28.211100 4.569200 -7.404500 8.145900 -35.693700 0.000000 0.000000 0.000000 -7.125000 0.000000 0.000000 -46.245300 59.400400 18.666200 0.000000 0.000000 0.000000 -29.617300 13.223500 72.442500 -37.862500 -46.751300 -16.865400 0.000000 -22.387300 -0.000000 0.000000 0.000000 0.000000 0.000000 -0.000000 0.000000 0.000000 0.000000 0.000000
13.610830 17.428228 -16.656880 -1.876553 -5.793948 1.054931 0.000000 0.000000 0.000000 -17.624756 -3.802549 -24.304075 2.715605 10.219707 29.691254 0.091235 -4.789121 -5.902890 0.017945 -0.859788 -2.362973 0.000000 0.000000 0.000000 21.828717 4.448047 1.561972 -6.929650 -15.264859 48.594643 -1.180853 -10.660076 19.712145 -0.578352 -4.852503 13.491725 0.596622 2.832199 3.099514 0.097337 3.782480 2.853518 -0.306780 1.899402 1.223741 -11.205624 -3.526932 -15.640799 7.220632 -3.696403 20.530831 3.903851 -1.817438 9.402963 0.000000 0.000000 0.000000 6.803187 5.764006 -13.847576 18.042657 -28.211709 4.569390 -7.560865 8.084161 -35.676381 0.000000 0.000000 0.000000 -7.125000 0.000000 0.000000 -46.367217 59.351222 18.673280 0.000000 0.000000 0.000000 -29.682883 13.009393 72.370788 -37.850091 -46.743307 -16.856341 0.000000 -22.356126 0.000000 0.000000 0.000000 0.000000 0.000000 0.000000 0.000000 0.000000 0.000000 0.000000
13.615359 17.434356 -16.595560 -1.693506 -5.906997 0.978461 0.000000 0.000000 0.000000 -17.888612 -3.618398 -23.986550 2.704110 10.199914 29.626508 0.101169 -4.787141 -6.131879 0.020990 -0.931575 -2.560446 0.000000 0.000000 0.000000 21.608634 4.722294 0.985844 -7.211700 -15.501918 49.660685 -1.145607 -11.082352 19.504889 -0.505004 -4.541106 12.606750 0.387844 2.861698 3.122428 0.081274 3.817461 2.957735 -0.205759 1.913904 1.305882 -11.170948 -3.522365 -15.972598 7.177163 -3.653505 20.613162 3.888702 -1.794676 9.487426 0.000000 0.000000 0.000000 6.863975 5.591312 -13.984452 18.043114 -28.212318 4.569581 -7.717229 8.022422 -35.659062 0.000000 0.000000 0.000000 -7.125000 0.000000 0.000000 -46.489134 59.302044 18.680360 0.000000 0.000000 0.000000 -29.748467 12.795286 72.299077 -37.837683 -46.735313 -16.847282 0.000000 -22.324952 0.000000 0.000000 0.000000 0.000000 0.000000 0.000000 0.000000 0.000000 0.000000 0.000000
13.621109 17.440598 -16.533615 -1.493544 -5.972877 0.879472 0.000000 0.000000 0.000000 -18.181955 -3.463025 -23.619571 2.686342 10.169038 29.525847 0.110749 -4.779514 -6.346338 0.024461 -1.006584 -2.766831 0.000000 0.000000 0.000000 21.360554 4.926242 0.443602 -7.484910 -15.724106 50.680581 -1.098085 -11.486194 19.204034 -0.445023 -4.276424 11.856271 0.179790 2.872296 3.160711 0.054498 3.827452 3.046301 -0.116999 1.915791 1.364027 -11.139622 -3.512306 -16.326988 7.149971 -3.606237 20.769610 3.882293 -1.769147 9.602440 0.000000 0.000000 0.000000 6.934369 5.410771 -14.074458 17.981743 -28.133348 4.540823 -7.757730 8.067834 -35.517351 0.000000 0.000000 0.000000 -7.125000 0.000000 0.000000 -46.366978 59.189748 18.492081 0.000000 0.000000 0.000000 -29.825516 12.622856 72.300985 -37.849752 -46.743029 -16.856074 0.000000 -22.289180 0.000000 0.000000 0.000000 0.000000 0.000000 0.000000 0.000000 0.000000 0.000000 0.000000
13.628912 17.447031 -16.470620 -1.265125 -5.959402 0.742595 0.000000 0.000000 0.000000 -18.524906 -3.356067 -23.169395 2.658023 10.119518 29.364762 0.119732 -4.762386 -6.536351 0.028648 -1.087012 -2.988208 0.000000 0.000000 0.000000 21.065372 5.011923 -0.041631 -7.743246 -15.921274 51.622842 -1.029914 -11.859026 18.745713 -0.407530 -4.090331 11.332061 -0.027047 2.851095 3.224848 0.009697 3.795402 3.108535 -0.048866 1.896455 1.381803 -11.113929 -3.493007 -16.719384 7.150161 -3.551616 21.050746 3.890591 -1.738963 9.768853 0.000000 0.000000 0.000000 7.020925 5.217028 -14.085610 17.816357 -27.920497 4.463364 -7.603307 8.293513 -35.166368 0.000000 0.000000 0.000000 -7.125000 0.000000 0.000000 -45.834204 58.971263 17.975142 0.000000 0.000000 0.000000 -29.921854 12.520542 72.426746 -37.903003 -46.777172 -16.894899 0.000000 -22.245674 0.000000 0.000000 0.000000 0.000000 0.000000 0.000000 0.000000 0.000000 0.000000 0.000000
13.636715 17.453464 -16.407625 -1.036707 -5.945928 0.605719 0.000000 0.000000 0.000000 -18.867858 -3.249109 -22.719219 2.629704 10.069997 29.203678 0.128715 -4.745257 -6.726363 0.032835 -1.167440 -3.209585 0.000000 0.000000 0.000000 20.770190 5.097604 -0.526864 -8.001583 -16.118443 52.565102 -0.961742 -12.231857 18.287391 -0.370038 -3.904239 10.807852 -0.233884 2.829893 3.288984 -0.035103 3.763353 3.170769 0.019268 1.877119 1.399578 -11.088236 -3.473709 -17.111780 7.150352 -3.496995 21.331883 3.898889 -1.708778 9.935267 0.000000 0.000000 0.000000 7.107481 5.023285 -14.096763 17.650972 -27.707646 4.385905 -7.448883 8.519191 -34.815385 0.000000 0.000000 0.000000 -7.125000 0.000000 0.000000 -45.301430 58.752779 17.458202 0.000000 0.000000 0.000000 -30.018193 12.418227 72.552508 -37.956254 -46.811315 -16.933724 0.000000 -22.202167 0.000000 0.000000 0.000000 0.000000 0.000000 0.000000 0.000000 0.000000 0.000000 0.000000
13.648037 17.459357 -16.340288 -0.776984 -5.816774 0.445117 0.000000 0.000000 0.000000 -19.272424 -3.229761 -22.216254 2.604280 10.024989 29.057777 0.138265 -4.740957 -6.923131 0.037902 -1.251955 -3.442314 0.000000 0.000000 0.000000 20.395202 5.012121 -0.984028 -8.254470 -16.299179 53.467658 -0.881083 -12.485263 17.690174 -0.383091 -3.970394 10.993952 -0.423806 2.759679 3.363707 -0.095371 3.665915 3.208481 0.062540 1.825542 1.389200 -11.207057 -3.442065 -17.101767 7.274764 -3.450916 21.318911 3.969681 -1.683192 9.927991 0.000000 0.000000 0.000000 7.180528 4.947861 -14.059952 17.559206 -27.588962 4.343212 -7.434717 8.740583 -34.551701 0.000000 0.000000 0.000000 -7.125000 0.000000 0.000000 -45.000696 58.563329 17.097016 0.000000 0.000000 0.000000 -30.140812 12.353716 72.739061 -38.035728 -46.861975 -16.991734 0.000000 -22.209519 0.000000 0.000000 0.000000 0.000000 0.000000 0.000000 0.000000 0.000000 0.000000 0.000000
13.660560 17.465067 -16.271469 -0.506581 -5.648153 0.276420 0.000000 0.000000 0.000000 -19.698011 -3.240305 -21.695280 2.579843 9.981521 28.917056 0.148010 -4.741033 -7.122203 0.043269 -1.337864 -3.678916 0.000000 0.000000 0.000000 19.992985 4.868241 -1.431616 -8.505499 -16.474309 54.356668 -0.796163 -12.697923 17.045570 -0.413389 -4.122610 11.422394 -0.607956 2.672742 3.442042 -0.160917 3.546167 3.237828 0.097330 1.762966 1.369217 -11.375183 -3.406210 -16.954461 7.441558 -3.407752 21.205596 4.061795 -1.659174 9.861456 0.000000 0.000000 0.000000 7.248966 4.912805 -14.006778 17.492556 -27.502406 4.312380 -7.468403 8.960514 -34.317801 0.000000 0.000000 0.000000 -7.125000 0.000000 0.000000 -44.779129 58.383783 16.788968 0.000000 0.000000 0.000000 -30.272397 12.302102 72.946354 -38.124150 -46.918271 -17.056289 0.000000 -22.234222 0.000000 0.000000 0.000000 0.000000 0.000000 0.000000 0.000000 0.000000 0.000000 0.000000
